<!-- icon666.com - MILLIONS vector ICONS FREE --><svg viewBox="0 0 32 32" xmlns="http://www.w3.org/2000/svg"><g id="gamepad"><path d="m23 14h-14c-4.4111328 0-8 3.5888672-8 8s3.5888672 8 8 8c1.9614258 0 3.8227539-.7070313 5.2866211-2h3.4262695c1.4638672 1.2929688 3.3261719 2 5.2871094 2 4.4111328 0 8-3.5888672 8-8s-3.5888672-8-8-8zm0 14c-1.5751953 0-3.0644531-.609375-4.1953125-1.7148438-.1865234-.1826171-.4375-.2851562-.6992187-.2851562h-4.2114258c-.2617188 0-.5126953.1025391-.699707.2851563-1.1293946 1.1054687-2.6191407 1.7148437-4.194336 1.7148437-3.3085938 0-6-2.6914063-6-6s2.6914063-6 6-6h14c3.3085938 0 6 2.6914063 6 6s-2.6914062 6-6 6zm-11-6c0 .5527344-.4477539 1-1 1h-1v1c0 .5527344-.4477539 1-1 1s-1-.4472656-1-1v-1h-1c-.5522461 0-1-.4472656-1-1s.4477539-1 1-1h1v-1c0-.5527344.4477539-1 1-1s1 .4472656 1 1v1h1c.5522461 0 1 .4472656 1 1zm10 0c0 .5527344-.4472656 1-1 1s-1-.4472656-1-1 .4472656-1 1-1 1 .4472656 1 1zm0-2c0-.5527344.4472656-1 1-1s1 .4472656 1 1-.4472656 1-1 1-1-.4472656-1-1zm2 4c0 .5527344-.4472656 1-1 1s-1-.4472656-1-1 .4472656-1 1-1 1 .4472656 1 1zm2-2c0 .5527344-.4472656 1-1 1s-1-.4472656-1-1 .4472656-1 1-1 1 .4472656 1 1zm-15.6572266-16.2431641c-.390625-.390625-.390625-1.0234375 0-1.4140625 1.5097657-1.5107421 3.519043-2.3427734 5.6572266-2.3427734 2.1376953 0 4.1464844.8320313 5.6572266 2.3427734.390625.390625.390625 1.0234375 0 1.4140625-.1953125.1953125-.4511719.2929688-.7070313.2929688s-.5117188-.0976563-.7070313-.2929688c-1.1328124-1.1328125-2.6396484-1.7568359-4.243164-1.7568359s-3.1103516.6240234-4.2431641 1.7568359c-.3896484.390625-1.0234375.390625-1.4140625 0zm7.0703125 2.8300782c-.7578125-.7578125-2.0693359-.7578125-2.8261719 0-.390625.390625-1.0234375.390625-1.4140625 0s-.390625-1.0234375 0-1.4140625c1.512207-1.5126953 4.1425781-1.5146484 5.6542969 0 .390625.390625.390625 1.0234375 0 1.4140625-.1953125.1953125-.4511719.2929688-.7070313.2929688s-.5117187-.0976563-.7070312-.2929688zm-1.4130859 1.4130859c.5522461 0 1 .4472656 1 1s-.4477539 1-1 1-1-.4472656-1-1 .4477539-1 1-1z"></path></g></svg>